<svg xmlns="http://www.w3.org/2000/svg" xmlns:xlink="http://www.w3.org/1999/xlink" viewBox="10 27 259 152" width="340.7894736842105" height="200"><path d="M 56.000,61.000 C 53.699,64.359 54.000,64.500 52.000,68.000" stroke-width="4.986" stroke="black" fill="none" stroke-linecap="round"></path><path d="M 52.000,68.000 C 50.901,72.198 50.199,71.859 49.000,76.000" stroke-width="3.983" stroke="black" fill="none" stroke-linecap="round"></path><path d="M 49.000,76.000 C 46.391,79.936 46.901,80.198 44.000,84.000" stroke-width="3.661" stroke="black" fill="none" stroke-linecap="round"></path><path d="M 44.000,84.000 C 41.397,88.446 41.391,88.436 39.000,93.000" stroke-width="3.652" stroke="black" fill="none" stroke-linecap="round"></path><path d="M 39.000,93.000 C 36.603,98.054 36.397,97.946 34.000,103.000" stroke-width="3.467" stroke="black" fill="none" stroke-linecap="round"></path><path d="M 34.000,103.000 C 31.397,107.446 31.603,107.554 29.000,112.000" stroke-width="3.492" stroke="black" fill="none" stroke-linecap="round"></path><path d="M 29.000,112.000 C 26.500,117.000 26.397,116.946 24.000,122.000" stroke-width="3.364" stroke="black" fill="none" stroke-linecap="round"></path><path d="M 24.000,122.000 C 21.890,125.949 22.000,126.000 20.000,130.000" stroke-width="3.583" stroke="black" fill="none" stroke-linecap="round"></path><path d="M 20.000,130.000 C 18.464,133.485 18.390,133.449 17.000,137.000" stroke-width="3.789" stroke="black" fill="none" stroke-linecap="round"></path><path d="M 17.000,137.000 C 14.582,143.115 15.964,139.485 15.000,142.000" stroke-width="4.073" stroke="black" fill="none" stroke-linecap="round"></path><path d="M 15.000,142.000 C 16.974,135.254 16.082,139.115 20.000,129.000" stroke-width="4.875" stroke="black" fill="none" stroke-linecap="round"></path><path d="M 20.000,129.000 C 24.918,119.954 24.474,119.754 30.000,111.000" stroke-width="2.970" stroke="black" fill="none" stroke-linecap="round"></path><path d="M 30.000,111.000 C 35.096,101.241 35.418,101.454 41.000,92.000" stroke-width="2.524" stroke="black" fill="none" stroke-linecap="round"></path><path d="M 41.000,92.000 C 46.427,83.033 46.596,83.241 53.000,75.000" stroke-width="2.528" stroke="black" fill="none" stroke-linecap="round"></path><path d="M 53.000,75.000 C 60.375,66.879 59.927,66.533 68.000,59.000" stroke-width="2.477" stroke="black" fill="none" stroke-linecap="round"></path><path d="M 68.000,59.000 C 75.500,51.500 75.375,51.379 83.000,44.000" stroke-width="2.436" stroke="black" fill="none" stroke-linecap="round"></path><path d="M 83.000,44.000 C 89.693,35.837 88.000,39.000 93.000,34.000" stroke-width="2.848" stroke="black" fill="none" stroke-linecap="round"></path><path d="M 93.000,34.000 C 92.864,36.625 94.193,33.337 92.000,39.000" stroke-width="4.180" stroke="black" fill="none" stroke-linecap="round"></path><path d="M 92.000,39.000 C 90.319,41.921 90.864,42.125 89.000,45.000" stroke-width="4.026" stroke="black" fill="none" stroke-linecap="round"></path><path d="M 89.000,45.000 C 87.500,49.000 87.319,48.921 86.000,53.000" stroke-width="3.824" stroke="black" fill="none" stroke-linecap="round"></path><path d="M 86.000,53.000 C 84.710,57.092 84.500,57.000 83.000,61.000" stroke-width="3.767" stroke="black" fill="none" stroke-linecap="round"></path><path d="M 83.000,61.000 C 81.104,65.056 81.210,65.092 79.000,69.000" stroke-width="3.654" stroke="black" fill="none" stroke-linecap="round"></path><path d="M 79.000,69.000 C 76.896,72.444 77.104,72.556 75.000,76.000" stroke-width="3.766" stroke="black" fill="none" stroke-linecap="round"></path><path d="M 75.000,76.000 C 73.263,80.153 72.896,79.944 71.000,84.000" stroke-width="3.709" stroke="black" fill="none" stroke-linecap="round"></path><path d="M 71.000,84.000 C 68.164,88.619 68.263,88.653 65.000,93.000" stroke-width="3.455" stroke="black" fill="none" stroke-linecap="round"></path><path d="M 65.000,93.000 C 61.532,97.526 61.664,97.619 58.000,102.000" stroke-width="3.393" stroke="black" fill="none" stroke-linecap="round"></path><path d="M 58.000,102.000 C 54.381,107.362 54.032,107.026 50.000,112.000" stroke-width="3.261" stroke="black" fill="none" stroke-linecap="round"></path><path d="M 50.000,112.000 C 45.097,115.630 45.881,116.362 41.000,120.000" stroke-width="3.225" stroke="black" fill="none" stroke-linecap="round"></path><path d="M 41.000,120.000 C 38.048,124.037 37.597,123.630 35.000,128.000" stroke-width="3.440" stroke="black" fill="none" stroke-linecap="round"></path><path d="M 35.000,128.000 C 32.392,130.217 33.048,130.537 31.000,133.000" stroke-width="3.868" stroke="black" fill="none" stroke-linecap="round"></path><path d="M 31.000,133.000 C 28.860,137.088 29.892,135.217 30.000,138.000" stroke-width="4.520" stroke="black" fill="none" stroke-linecap="round"></path><path d="M 30.000,138.000 C 33.114,137.888 31.360,139.088 36.000,137.000" stroke-width="5.195" stroke="black" fill="none" stroke-linecap="round"></path><path d="M 36.000,137.000 C 39.791,135.975 39.614,135.888 43.000,134.000" stroke-width="4.741" stroke="black" fill="none" stroke-linecap="round"></path><path d="M 43.000,134.000 C 46.000,131.500 46.291,131.975 49.000,129.000" stroke-width="4.083" stroke="black" fill="none" stroke-linecap="round"></path><path d="M 49.000,129.000 C 52.124,126.636 52.000,126.500 55.000,124.000" stroke-width="3.866" stroke="black" fill="none" stroke-linecap="round"></path><path d="M 55.000,124.000 C 58.297,121.244 58.124,121.136 61.000,118.000" stroke-width="3.786" stroke="black" fill="none" stroke-linecap="round"></path><path d="M 61.000,118.000 C 63.065,115.041 63.297,115.244 65.000,112.000" stroke-width="3.899" stroke="black" fill="none" stroke-linecap="round"></path><path d="M 65.000,112.000 C 68.000,106.392 66.565,109.541 68.000,107.000" stroke-width="4.477" stroke="black" fill="none" stroke-linecap="round"></path><path d="M 68.000,107.000 C 66.626,111.052 68.000,107.892 65.000,115.000" stroke-width="4.823" stroke="black" fill="none" stroke-linecap="round"></path><path d="M 65.000,115.000 C 62.545,119.364 63.126,119.552 61.000,124.000" stroke-width="3.799" stroke="black" fill="none" stroke-linecap="round"></path><path d="M 61.000,124.000 C 58.807,130.000 60.045,126.864 60.000,130.000" stroke-width="4.033" stroke="black" fill="none" stroke-linecap="round"></path><path d="M 60.000,130.000 C 64.353,127.666 61.807,130.000 67.000,124.000" stroke-width="4.703" stroke="black" fill="none" stroke-linecap="round"></path><path d="M 67.000,124.000 C 70.129,118.060 70.853,118.666 73.000,112.000" stroke-width="3.491" stroke="black" fill="none" stroke-linecap="round"></path><path d="M 73.000,112.000 C 75.352,104.352 74.629,108.560 76.000,105.000" stroke-width="3.758" stroke="black" fill="none" stroke-linecap="round"></path><path d="M 76.000,105.000 C 76.000,110.000 76.852,105.852 76.000,115.000" stroke-width="4.364" stroke="black" fill="none" stroke-linecap="round"></path><path d="M 76.000,115.000 C 74.111,122.056 76.000,119.000 76.000,123.000" stroke-width="3.915" stroke="black" fill="none" stroke-linecap="round"></path><path d="M 76.000,123.000 C 81.146,122.211 78.111,124.056 84.000,119.000" stroke-width="4.594" stroke="black" fill="none" stroke-linecap="round"></path><path d="M 84.000,119.000 C 88.483,112.241 89.146,113.211 92.000,105.000" stroke-width="3.249" stroke="black" fill="none" stroke-linecap="round"></path><path d="M 92.000,105.000 C 95.575,94.015 96.983,94.741 101.000,84.000" stroke-width="2.604" stroke="black" fill="none" stroke-linecap="round"></path><path d="M 101.000,84.000 C 109.707,70.625 108.575,70.015 118.000,57.000" stroke-width="2.050" stroke="black" fill="none" stroke-linecap="round"></path><path d="M 118.000,57.000 C 127.684,41.291 123.707,47.625 129.000,38.000" stroke-width="2.317" stroke="black" fill="none" stroke-linecap="round"></path><path d="M 129.000,38.000 C 124.948,42.144 129.684,36.291 122.000,47.000" stroke-width="3.543" stroke="black" fill="none" stroke-linecap="round"></path><path d="M 122.000,47.000 C 116.591,56.307 116.448,56.144 112.000,66.000" stroke-width="2.730" stroke="black" fill="none" stroke-linecap="round"></path><path d="M 112.000,66.000 C 107.827,75.431 107.591,75.307 104.000,85.000" stroke-width="2.534" stroke="black" fill="none" stroke-linecap="round"></path><path d="M 104.000,85.000 C 100.873,92.955 100.827,92.931 98.000,101.000" stroke-width="2.718" stroke="black" fill="none" stroke-linecap="round"></path><path d="M 98.000,101.000 C 96.000,107.000 95.873,106.955 94.000,113.000" stroke-width="3.054" stroke="black" fill="none" stroke-linecap="round"></path><path d="M 94.000,113.000 C 93.319,116.143 93.000,116.000 92.000,119.000" stroke-width="3.678" stroke="black" fill="none" stroke-linecap="round"></path><path d="M 92.000,119.000 C 89.896,122.444 90.319,122.643 88.000,126.000" stroke-width="4.246" stroke="black" fill="none" stroke-linecap="round"></path><path d="M 88.000,126.000 C 85.873,129.943 85.896,129.944 84.000,134.000" stroke-width="4.370" stroke="black" fill="none" stroke-linecap="round"></path><path d="M 84.000,134.000 C 81.664,140.454 82.873,136.443 82.000,139.000" stroke-width="4.686" stroke="black" fill="none" stroke-linecap="round"></path><path d="M 82.000,139.000 C 83.220,129.450 83.164,133.954 87.000,121.000" stroke-width="5.097" stroke="black" fill="none" stroke-linecap="round"></path><path d="M 87.000,121.000 C 92.481,110.648 91.720,110.450 99.000,101.000" stroke-width="2.742" stroke="black" fill="none" stroke-linecap="round"></path><path d="M 99.000,101.000 C 105.040,92.059 104.981,92.148 112.000,84.000" stroke-width="2.561" stroke="black" fill="none" stroke-linecap="round"></path><path d="M 112.000,84.000 C 116.278,78.262 114.540,81.059 118.000,79.000" stroke-width="3.347" stroke="black" fill="none" stroke-linecap="round"></path><path d="M 118.000,79.000 C 119.485,83.116 119.778,79.762 119.000,87.000" stroke-width="4.271" stroke="black" fill="none" stroke-linecap="round"></path><path d="M 119.000,87.000 C 117.814,91.145 118.485,91.116 116.000,95.000" stroke-width="3.888" stroke="black" fill="none" stroke-linecap="round"></path><path d="M 116.000,95.000 C 113.609,99.564 113.814,99.645 111.000,104.000" stroke-width="3.550" stroke="black" fill="none" stroke-linecap="round"></path><path d="M 111.000,104.000 C 108.615,108.077 108.609,108.064 106.000,112.000" stroke-width="3.597" stroke="black" fill="none" stroke-linecap="round"></path><path d="M 106.000,112.000 C 103.247,115.348 103.615,115.577 101.000,119.000" stroke-width="3.640" stroke="black" fill="none" stroke-linecap="round"></path><path d="M 101.000,119.000 C 97.228,122.941 99.247,121.848 98.000,125.000" stroke-width="3.907" stroke="black" fill="none" stroke-linecap="round"></path><path d="M 98.000,125.000 C 101.539,127.895 98.728,126.941 104.000,127.000" stroke-width="4.809" stroke="black" fill="none" stroke-linecap="round"></path><path d="M 104.000,127.000 C 106.694,124.145 107.039,125.895 109.000,121.000" stroke-width="4.098" stroke="black" fill="none" stroke-linecap="round"></path><path d="M 109.000,121.000 C 112.076,116.548 112.194,116.645 115.000,112.000" stroke-width="3.549" stroke="black" fill="none" stroke-linecap="round"></path><path d="M 115.000,112.000 C 118.000,105.879 116.576,109.548 118.000,107.000" stroke-width="4.342" stroke="black" fill="none" stroke-linecap="round"></path><path d="M 118.000,107.000 C 116.774,113.085 118.000,109.379 115.000,119.000" stroke-width="4.163" stroke="black" fill="none" stroke-linecap="round"></path><path d="M 115.000,119.000 C 111.406,125.514 113.774,123.085 112.000,127.000" stroke-width="3.860" stroke="black" fill="none" stroke-linecap="round"></path><path d="M 112.000,127.000 C 115.373,126.278 112.406,128.014 117.000,124.000" stroke-width="4.742" stroke="black" fill="none" stroke-linecap="round"></path><path d="M 117.000,124.000 C 120.201,118.698 120.373,119.278 122.000,113.000" stroke-width="3.621" stroke="black" fill="none" stroke-linecap="round"></path><path d="M 122.000,113.000 C 124.451,105.726 123.201,109.198 123.000,105.000" stroke-width="3.755" stroke="black" fill="none" stroke-linecap="round"></path><path d="M 123.000,105.000 C 118.195,106.707 121.451,104.226 116.000,110.000" stroke-width="4.421" stroke="black" fill="none" stroke-linecap="round"></path><path d="M 116.000,110.000 C 116.987,116.338 114.195,112.707 115.000,117.000" stroke-width="4.583" stroke="black" fill="none" stroke-linecap="round"></path><path d="M 115.000,117.000 C 111.288,113.780 112.487,117.838 107.000,113.000" stroke-width="4.842" stroke="black" fill="none" stroke-linecap="round"></path><path d="M 107.000,113.000 C 100.000,113.000 100.288,111.780 93.000,113.000" stroke-width="3.387" stroke="black" fill="none" stroke-linecap="round"></path><path d="M 93.000,113.000 C 87.000,113.000 87.000,113.000 81.000,113.000" stroke-width="3.324" stroke="black" fill="none" stroke-linecap="round"></path><path d="M 81.000,113.000 C 74.073,113.927 78.000,113.000 75.000,113.000" stroke-width="4.213" stroke="black" fill="none" stroke-linecap="round"></path><path d="M 75.000,113.000 C 80.849,109.636 77.073,110.927 87.000,107.000" stroke-width="4.086" stroke="black" fill="none" stroke-linecap="round"></path><path d="M 87.000,107.000 C 91.364,104.662 91.349,105.136 96.000,104.000" stroke-width="3.681" stroke="black" fill="none" stroke-linecap="round"></path><path d="M 96.000,104.000 C 102.000,104.000 101.864,103.162 108.000,104.000" stroke-width="3.404" stroke="black" fill="none" stroke-linecap="round"></path><path d="M 108.000,104.000 C 115.500,104.000 115.500,104.000 123.000,104.000" stroke-width="3.102" stroke="black" fill="none" stroke-linecap="round"></path><path d="M 123.000,104.000 C 130.000,104.000 130.000,104.000 137.000,104.000" stroke-width="3.030" stroke="black" fill="none" stroke-linecap="round"></path><path d="M 137.000,104.000 C 143.022,104.315 143.000,104.000 149.000,104.000" stroke-width="3.212" stroke="black" fill="none" stroke-linecap="round"></path><path d="M 149.000,104.000 C 153.149,104.663 152.522,103.815 156.000,103.000" stroke-width="3.709" stroke="black" fill="none" stroke-linecap="round"></path><path d="M 156.000,103.000 C 159.185,100.328 159.149,101.163 161.000,97.000" stroke-width="3.758" stroke="black" fill="none" stroke-linecap="round"></path><path d="M 210.000,55.000 C 212.111,49.111 210.000,51.000 210.000,47.000" stroke-width="5.244" stroke="black" fill="none" stroke-linecap="round"></path><path d="M 210.000,47.000 C 205.439,45.488 207.611,44.611 201.000,46.000" stroke-width="3.967" stroke="black" fill="none" stroke-linecap="round"></path><path d="M 201.000,46.000 C 191.356,45.797 192.439,46.988 184.000,50.000" stroke-width="3.050" stroke="black" fill="none" stroke-linecap="round"></path><path d="M 184.000,50.000 C 174.166,57.251 173.856,55.797 166.000,66.000" stroke-width="2.506" stroke="black" fill="none" stroke-linecap="round"></path><path d="M 166.000,66.000 C 159.350,72.387 160.166,72.251 156.000,80.000" stroke-width="2.646" stroke="black" fill="none" stroke-linecap="round"></path><path d="M 156.000,80.000 C 153.637,86.095 153.850,84.887 155.000,91.000" stroke-width="3.138" stroke="black" fill="none" stroke-linecap="round"></path><path d="M 155.000,91.000 C 157.549,95.009 156.137,95.095 161.000,98.000" stroke-width="3.427" stroke="black" fill="none" stroke-linecap="round"></path><path d="M 161.000,98.000 C 165.741,100.688 165.049,101.509 170.000,104.000" stroke-width="3.435" stroke="black" fill="none" stroke-linecap="round"></path><path d="M 170.000,104.000 C 175.270,107.410 174.741,107.688 179.000,112.000" stroke-width="3.334" stroke="black" fill="none" stroke-linecap="round"></path><path d="M 179.000,112.000 C 181.944,115.777 181.770,115.410 183.000,120.000" stroke-width="3.521" stroke="black" fill="none" stroke-linecap="round"></path><path d="M 183.000,120.000 C 185.170,125.055 183.944,123.777 183.000,128.000" stroke-width="3.678" stroke="black" fill="none" stroke-linecap="round"></path><path d="M 183.000,128.000 C 176.015,133.519 178.170,134.555 169.000,139.000" stroke-width="2.973" stroke="black" fill="none" stroke-linecap="round"></path><path d="M 169.000,139.000 C 160.000,146.000 160.015,146.019 151.000,153.000" stroke-width="2.549" stroke="black" fill="none" stroke-linecap="round"></path><path d="M 151.000,153.000 C 142.119,160.161 142.000,160.000 133.000,167.000" stroke-width="2.445" stroke="black" fill="none" stroke-linecap="round"></path><path d="M 133.000,167.000 C 127.163,173.306 128.119,170.661 123.000,174.000" stroke-width="2.923" stroke="black" fill="none" stroke-linecap="round"></path><path d="M 123.000,174.000 C 120.011,171.358 121.163,174.306 121.000,169.000" stroke-width="4.052" stroke="black" fill="none" stroke-linecap="round"></path><path d="M 121.000,169.000 C 128.751,156.139 126.511,155.858 136.000,143.000" stroke-width="2.315" stroke="black" fill="none" stroke-linecap="round"></path><path d="M 136.000,143.000 C 144.341,126.914 144.751,127.139 153.000,111.000" stroke-width="1.982" stroke="black" fill="none" stroke-linecap="round"></path><path d="M 153.000,111.000 C 162.263,92.547 162.841,92.914 173.000,75.000" stroke-width="1.732" stroke="black" fill="none" stroke-linecap="round"></path><path d="M 173.000,75.000 C 183.532,59.522 182.763,59.047 194.000,44.000" stroke-width="1.698" stroke="black" fill="none" stroke-linecap="round"></path><path d="M 194.000,44.000 C 203.527,31.045 198.032,38.022 202.000,32.000" stroke-width="2.420" stroke="black" fill="none" stroke-linecap="round"></path><path d="M 202.000,32.000 C 193.609,40.163 199.527,33.545 186.000,49.000" stroke-width="3.274" stroke="black" fill="none" stroke-linecap="round"></path><path d="M 186.000,49.000 C 177.691,57.964 178.109,58.163 171.000,68.000" stroke-width="2.473" stroke="black" fill="none" stroke-linecap="round"></path><path d="M 171.000,68.000 C 164.504,77.585 164.691,77.464 160.000,88.000" stroke-width="2.422" stroke="black" fill="none" stroke-linecap="round"></path><path d="M 160.000,88.000 C 156.442,96.348 156.504,96.085 155.000,105.000" stroke-width="2.645" stroke="black" fill="none" stroke-linecap="round"></path><path d="M 155.000,105.000 C 154.641,111.536 153.942,111.348 155.000,118.000" stroke-width="3.003" stroke="black" fill="none" stroke-linecap="round"></path><path d="M 155.000,118.000 C 154.541,121.298 155.141,120.536 156.000,123.000" stroke-width="3.788" stroke="black" fill="none" stroke-linecap="round"></path><path d="M 156.000,123.000 C 158.399,124.527 157.541,124.798 161.000,125.000" stroke-width="4.114" stroke="black" fill="none" stroke-linecap="round"></path><path d="M 161.000,125.000 C 164.000,125.000 163.899,125.527 167.000,125.000" stroke-width="4.098" stroke="black" fill="none" stroke-linecap="round"></path><path d="M 167.000,125.000 C 171.737,126.003 171.500,125.000 176.000,125.000" stroke-width="3.795" stroke="black" fill="none" stroke-linecap="round"></path><path d="M 176.000,125.000 C 180.370,123.513 180.237,124.003 184.000,121.000" stroke-width="3.662" stroke="black" fill="none" stroke-linecap="round"></path><path d="M 184.000,121.000 C 188.208,115.736 186.870,119.013 189.000,116.000" stroke-width="3.874" stroke="black" fill="none" stroke-linecap="round"></path><path d="M 189.000,116.000 C 188.652,119.403 189.708,116.236 187.000,122.000" stroke-width="4.681" stroke="black" fill="none" stroke-linecap="round"></path><path d="M 187.000,122.000 C 184.850,124.964 185.152,124.903 182.000,127.000" stroke-width="4.162" stroke="black" fill="none" stroke-linecap="round"></path><path d="M 182.000,127.000 C 177.794,130.322 177.850,129.964 173.000,132.000" stroke-width="3.678" stroke="black" fill="none" stroke-linecap="round"></path><path d="M 173.000,132.000 C 167.538,133.417 167.794,133.822 162.000,134.000" stroke-width="3.474" stroke="black" fill="none" stroke-linecap="round"></path><path d="M 162.000,134.000 C 158.000,134.000 158.038,134.417 154.000,134.000" stroke-width="3.663" stroke="black" fill="none" stroke-linecap="round"></path><path d="M 154.000,134.000 C 147.571,134.000 151.000,134.000 148.000,134.000" stroke-width="4.380" stroke="black" fill="none" stroke-linecap="round"></path><path d="M 148.000,134.000 C 152.000,134.000 148.571,134.000 156.000,134.000" stroke-width="4.482" stroke="black" fill="none" stroke-linecap="round"></path><path d="M 156.000,134.000 C 161.500,134.000 161.500,134.000 167.000,134.000" stroke-width="3.611" stroke="black" fill="none" stroke-linecap="round"></path><path d="M 167.000,134.000 C 171.686,135.446 170.500,134.000 174.000,134.000" stroke-width="3.907" stroke="black" fill="none" stroke-linecap="round"></path><path d="M 174.000,134.000 C 176.810,129.724 175.686,132.946 175.000,129.000" stroke-width="4.524" stroke="black" fill="none" stroke-linecap="round"></path><path d="M 175.000,129.000 C 167.004,128.000 169.310,126.724 159.000,128.000" stroke-width="3.246" stroke="black" fill="none" stroke-linecap="round"></path><path d="M 159.000,128.000 C 148.229,127.116 148.504,128.000 138.000,129.000" stroke-width="2.697" stroke="black" fill="none" stroke-linecap="round"></path><path d="M 138.000,129.000 C 129.355,131.658 129.229,130.616 121.000,135.000" stroke-width="2.720" stroke="black" fill="none" stroke-linecap="round"></path><path d="M 121.000,135.000 C 111.417,139.475 116.855,136.658 113.000,139.000" stroke-width="3.286" stroke="black" fill="none" stroke-linecap="round"></path><path d="M 113.000,139.000 C 122.127,135.803 116.417,137.975 131.000,132.000" stroke-width="3.491" stroke="black" fill="none" stroke-linecap="round"></path><path d="M 131.000,132.000 C 149.502,122.172 150.127,123.803 169.000,115.000" stroke-width="1.872" stroke="black" fill="none" stroke-linecap="round"></path><path d="M 169.000,115.000 C 193.192,106.267 193.002,106.172 218.000,100.000" stroke-width="1.516" stroke="black" fill="none" stroke-linecap="round"></path><path d="M 218.000,100.000 C 240.916,95.015 240.692,94.267 264.000,91.000" stroke-width="1.503" stroke="black" fill="none" stroke-linecap="round"></path></svg>