<svg xmlns="http://www.w3.org/2000/svg" xmlns:xlink="http://www.w3.org/1999/xlink" viewBox="32 27.242660522460938 296 117.25733947753906" width="504.8724477612756" height="200"><path d="M 37.000,98.500 C 40.810,95.697 41.000,96.500 45.000,94.500" stroke-width="4.988" stroke="black" fill="none" stroke-linecap="round"></path><path d="M 45.000,94.500 C 48.060,94.990 47.810,93.697 51.000,94.500" stroke-width="4.324" stroke="black" fill="none" stroke-linecap="round"></path><path d="M 51.000,94.500 C 57.016,93.061 57.060,93.490 63.000,91.500" stroke-width="4.182" stroke="black" fill="none" stroke-linecap="round"></path><path d="M 109.000,52.500 C 110.432,56.953 110.000,57.000 111.000,61.500" stroke-width="5.329" stroke="black" fill="none" stroke-linecap="round"></path><path d="M 111.000,61.500 C 111.249,65.018 111.432,64.953 111.000,68.500" stroke-width="4.252" stroke="black" fill="none" stroke-linecap="round"></path><path d="M 111.000,68.500 C 110.538,72.006 110.749,72.018 110.000,75.500" stroke-width="4.052" stroke="black" fill="none" stroke-linecap="round"></path><path d="M 110.000,75.500 C 109.462,78.494 109.538,78.506 109.000,81.500" stroke-width="4.115" stroke="black" fill="none" stroke-linecap="round"></path><path d="M 109.000,81.500 C 108.467,84.996 108.462,84.994 108.000,88.500" stroke-width="3.963" stroke="black" fill="none" stroke-linecap="round"></path><path d="M 108.000,88.500 C 107.500,92.500 107.467,92.496 107.000,96.500" stroke-width="3.859" stroke="black" fill="none" stroke-linecap="round"></path><path d="M 107.000,96.500 C 106.533,100.504 106.500,100.500 106.000,104.500" stroke-width="3.828" stroke="black" fill="none" stroke-linecap="round"></path><path d="M 106.000,104.500 C 105.538,108.006 105.533,108.004 105.000,111.500" stroke-width="3.879" stroke="black" fill="none" stroke-linecap="round"></path><path d="M 105.000,111.500 C 104.735,114.558 104.538,114.506 104.000,117.500" stroke-width="4.060" stroke="black" fill="none" stroke-linecap="round"></path><path d="M 104.000,117.500 C 102.708,123.736 103.235,120.558 102.000,123.500" stroke-width="4.501" stroke="black" fill="none" stroke-linecap="round"></path><path d="M 102.000,123.500 C 101.196,120.022 101.208,123.236 101.000,116.500" stroke-width="5.132" stroke="black" fill="none" stroke-linecap="round"></path><path d="M 101.000,116.500 C 101.000,111.000 100.696,111.022 101.000,105.500" stroke-width="3.725" stroke="black" fill="none" stroke-linecap="round"></path><path d="M 101.000,105.500 C 100.231,99.397 101.000,99.500 101.000,93.500" stroke-width="3.415" stroke="black" fill="none" stroke-linecap="round"></path><path d="M 101.000,93.500 C 102.549,88.013 101.731,87.897 104.000,82.500" stroke-width="3.381" stroke="black" fill="none" stroke-linecap="round"></path><path d="M 104.000,82.500 C 104.483,78.292 105.049,78.513 106.000,74.500" stroke-width="3.656" stroke="black" fill="none" stroke-linecap="round"></path><path d="M 106.000,74.500 C 107.823,70.887 107.483,70.792 110.000,67.500" stroke-width="3.715" stroke="black" fill="none" stroke-linecap="round"></path><path d="M 110.000,67.500 C 112.564,64.044 112.323,63.887 115.000,60.500" stroke-width="3.729" stroke="black" fill="none" stroke-linecap="round"></path><path d="M 115.000,60.500 C 117.606,55.677 118.064,56.044 121.000,51.500" stroke-width="3.520" stroke="black" fill="none" stroke-linecap="round"></path><path d="M 121.000,51.500 C 124.255,47.710 124.106,47.677 128.000,44.500" stroke-width="3.488" stroke="black" fill="none" stroke-linecap="round"></path><path d="M 128.000,44.500 C 131.209,41.396 131.255,41.710 135.000,39.500" stroke-width="3.657" stroke="black" fill="none" stroke-linecap="round"></path><path d="M 135.000,39.500 C 138.449,38.261 138.209,37.896 142.000,37.500" stroke-width="3.850" stroke="black" fill="none" stroke-linecap="round"></path><path d="M 142.000,37.500 C 145.538,36.269 145.449,36.761 149.000,36.500" stroke-width="3.885" stroke="black" fill="none" stroke-linecap="round"></path><path d="M 149.000,36.500 C 154.855,35.879 153.038,36.769 157.000,38.500" stroke-width="4.313" stroke="black" fill="none" stroke-linecap="round"></path><path d="M 157.000,38.500 C 157.762,42.985 159.355,41.379 158.000,47.500" stroke-width="4.383" stroke="black" fill="none" stroke-linecap="round"></path><path d="M 158.000,47.500 C 158.311,52.526 158.262,52.485 158.000,57.500" stroke-width="4.337" stroke="black" fill="none" stroke-linecap="round"></path><path d="M 158.000,57.500 C 157.951,60.647 157.811,60.526 157.000,63.500" stroke-width="4.199" stroke="black" fill="none" stroke-linecap="round"></path><path d="M 157.000,63.500 C 155.605,66.558 155.951,66.647 154.000,69.500" stroke-width="4.082" stroke="black" fill="none" stroke-linecap="round"></path><path d="M 154.000,69.500 C 152.500,72.000 152.605,72.058 151.000,74.500" stroke-width="4.110" stroke="black" fill="none" stroke-linecap="round"></path><path d="M 151.000,74.500 C 149.853,77.276 149.500,77.000 148.000,79.500" stroke-width="4.165" stroke="black" fill="none" stroke-linecap="round"></path><path d="M 148.000,79.500 C 144.840,83.428 144.853,83.276 141.000,86.500" stroke-width="4.297" stroke="black" fill="none" stroke-linecap="round"></path><path d="M 141.000,86.500 C 137.017,89.028 137.340,89.428 133.000,91.500" stroke-width="4.351" stroke="black" fill="none" stroke-linecap="round"></path><path d="M 133.000,91.500 C 130.637,93.283 130.517,93.028 128.000,94.500" stroke-width="4.236" stroke="black" fill="none" stroke-linecap="round"></path><path d="M 128.000,94.500 C 123.657,95.410 124.137,96.283 120.000,97.500" stroke-width="4.396" stroke="black" fill="none" stroke-linecap="round"></path><path d="M 120.000,97.500 C 116.576,99.637 116.657,99.410 114.000,102.500" stroke-width="4.502" stroke="black" fill="none" stroke-linecap="round"></path><path d="M 114.000,102.500 C 110.480,105.680 112.076,104.637 111.000,107.500" stroke-width="4.707" stroke="black" fill="none" stroke-linecap="round"></path><path d="M 111.000,107.500 C 113.399,109.027 111.480,109.180 116.000,109.500" stroke-width="5.131" stroke="black" fill="none" stroke-linecap="round"></path><path d="M 116.000,109.500 C 119.016,109.730 118.899,110.027 122.000,109.500" stroke-width="4.865" stroke="black" fill="none" stroke-linecap="round"></path><path d="M 122.000,109.500 C 125.528,109.151 125.516,109.230 129.000,108.500" stroke-width="4.700" stroke="black" fill="none" stroke-linecap="round"></path><path d="M 129.000,108.500 C 133.712,108.031 133.528,107.651 138.000,106.500" stroke-width="4.504" stroke="black" fill="none" stroke-linecap="round"></path><path d="M 138.000,106.500 C 140.617,105.168 140.712,105.531 143.000,103.500" stroke-width="4.230" stroke="black" fill="none" stroke-linecap="round"></path><path d="M 143.000,103.500 C 145.884,101.852 145.617,101.668 148.000,99.500" stroke-width="4.128" stroke="black" fill="none" stroke-linecap="round"></path><path d="M 148.000,99.500 C 150.644,96.755 150.384,96.852 152.000,93.500" stroke-width="4.002" stroke="black" fill="none" stroke-linecap="round"></path><path d="M 152.000,93.500 C 154.259,89.010 153.144,90.755 153.000,87.500" stroke-width="4.497" stroke="black" fill="none" stroke-linecap="round"></path><path d="M 153.000,87.500 C 149.833,86.792 151.759,86.010 147.000,87.500" stroke-width="4.852" stroke="black" fill="none" stroke-linecap="round"></path><path d="M 147.000,87.500 C 143.738,88.605 143.833,88.292 141.000,90.500" stroke-width="4.249" stroke="black" fill="none" stroke-linecap="round"></path><path d="M 141.000,90.500 C 137.118,93.142 137.238,93.105 134.000,96.500" stroke-width="3.809" stroke="black" fill="none" stroke-linecap="round"></path><path d="M 134.000,96.500 C 130.639,100.277 130.618,100.142 128.000,104.500" stroke-width="3.559" stroke="black" fill="none" stroke-linecap="round"></path><path d="M 128.000,104.500 C 125.654,108.365 125.639,108.277 124.000,112.500" stroke-width="3.647" stroke="black" fill="none" stroke-linecap="round"></path><path d="M 124.000,112.500 C 122.000,116.000 122.654,115.865 122.000,119.500" stroke-width="3.846" stroke="black" fill="none" stroke-linecap="round"></path><path d="M 122.000,119.500 C 121.807,124.581 122.000,123.000 124.000,126.500" stroke-width="4.350" stroke="black" fill="none" stroke-linecap="round"></path><path d="M 124.000,126.500 C 127.052,126.921 125.807,128.081 130.000,126.500" stroke-width="4.213" stroke="black" fill="none" stroke-linecap="round"></path><path d="M 130.000,126.500 C 134.627,126.608 134.052,125.921 138.000,124.500" stroke-width="3.849" stroke="black" fill="none" stroke-linecap="round"></path><path d="M 138.000,124.500 C 142.497,120.879 142.627,121.608 146.000,116.500" stroke-width="3.506" stroke="black" fill="none" stroke-linecap="round"></path><path d="M 146.000,116.500 C 148.424,113.178 148.497,113.379 150.000,109.500" stroke-width="3.717" stroke="black" fill="none" stroke-linecap="round"></path><path d="M 150.000,109.500 C 152.000,102.266 151.424,106.178 152.000,102.500" stroke-width="3.820" stroke="black" fill="none" stroke-linecap="round"></path><path d="M 152.000,102.500 C 150.579,106.448 152.000,102.766 150.000,110.500" stroke-width="4.723" stroke="black" fill="none" stroke-linecap="round"></path><path d="M 150.000,110.500 C 150.000,113.500 149.579,113.448 150.000,116.500" stroke-width="4.312" stroke="black" fill="none" stroke-linecap="round"></path><path d="M 150.000,116.500 C 148.238,122.270 150.000,121.000 150.000,125.500" stroke-width="4.387" stroke="black" fill="none" stroke-linecap="round"></path><path d="M 150.000,125.500 C 153.681,128.749 151.238,127.770 156.000,127.500" stroke-width="4.615" stroke="black" fill="none" stroke-linecap="round"></path><path d="M 156.000,127.500 C 161.197,123.728 160.181,125.249 163.000,118.500" stroke-width="4.326" stroke="black" fill="none" stroke-linecap="round"></path><path d="M 163.000,118.500 C 164.746,108.532 166.197,109.228 166.000,98.500" stroke-width="2.848" stroke="black" fill="none" stroke-linecap="round"></path><path d="M 166.000,98.500 C 168.085,84.531 167.746,84.532 169.000,70.500" stroke-width="2.294" stroke="black" fill="none" stroke-linecap="round"></path><path d="M 169.000,70.500 C 169.982,55.447 169.585,61.531 169.000,52.500" stroke-width="2.584" stroke="black" fill="none" stroke-linecap="round"></path><path d="M 169.000,52.500 C 166.730,56.875 168.482,50.947 166.000,61.500" stroke-width="3.925" stroke="black" fill="none" stroke-linecap="round"></path><path d="M 166.000,61.500 C 166.000,66.500 165.230,66.375 166.000,71.500" stroke-width="3.649" stroke="black" fill="none" stroke-linecap="round"></path><path d="M 166.000,71.500 C 166.000,76.000 166.000,76.000 166.000,80.500" stroke-width="3.669" stroke="black" fill="none" stroke-linecap="round"></path><path d="M 166.000,80.500 C 166.000,84.500 166.000,84.500 166.000,88.500" stroke-width="3.725" stroke="black" fill="none" stroke-linecap="round"></path><path d="M 166.000,88.500 C 166.000,92.000 166.000,92.000 166.000,95.500" stroke-width="3.903" stroke="black" fill="none" stroke-linecap="round"></path><path d="M 166.000,95.500 C 166.598,99.615 166.000,99.500 166.000,103.500" stroke-width="4.320" stroke="black" fill="none" stroke-linecap="round"></path><path d="M 166.000,103.500 C 164.559,105.890 165.598,106.115 164.000,108.500" stroke-width="4.824" stroke="black" fill="none" stroke-linecap="round"></path><path d="M 164.000,108.500 C 163.282,112.988 163.059,112.890 163.000,117.500" stroke-width="4.915" stroke="black" fill="none" stroke-linecap="round"></path><path d="M 163.000,117.500 C 163.268,124.232 162.782,120.988 163.000,124.500" stroke-width="4.928" stroke="black" fill="none" stroke-linecap="round"></path><path d="M 163.000,124.500 C 162.252,121.521 162.768,124.732 162.000,118.500" stroke-width="5.214" stroke="black" fill="none" stroke-linecap="round"></path><path d="M 162.000,118.500 C 161.651,115.469 161.752,115.521 162.000,112.500" stroke-width="4.427" stroke="black" fill="none" stroke-linecap="round"></path><path d="M 162.000,112.500 C 161.637,106.424 162.651,106.969 164.000,101.500" stroke-width="3.582" stroke="black" fill="none" stroke-linecap="round"></path><path d="M 164.000,101.500 C 169.156,94.604 167.637,93.924 174.000,87.500" stroke-width="2.993" stroke="black" fill="none" stroke-linecap="round"></path><path d="M 174.000,87.500 C 176.500,79.500 176.656,83.604 179.000,79.500" stroke-width="3.404" stroke="black" fill="none" stroke-linecap="round"></path><path d="M 179.000,79.500 C 182.721,83.150 181.500,79.500 184.000,87.500" stroke-width="4.341" stroke="black" fill="none" stroke-linecap="round"></path><path d="M 184.000,87.500 C 184.000,92.000 185.221,91.650 184.000,96.500" stroke-width="3.855" stroke="black" fill="none" stroke-linecap="round"></path><path d="M 184.000,96.500 C 185.205,100.886 184.000,100.500 184.000,104.500" stroke-width="3.834" stroke="black" fill="none" stroke-linecap="round"></path><path d="M 184.000,104.500 C 181.715,108.182 182.705,108.386 179.000,111.500" stroke-width="3.709" stroke="black" fill="none" stroke-linecap="round"></path><path d="M 179.000,111.500 C 177.000,113.500 177.215,113.682 175.000,115.500" stroke-width="4.053" stroke="black" fill="none" stroke-linecap="round"></path><path d="M 175.000,115.500 C 171.472,117.139 173.000,117.500 171.000,119.500" stroke-width="4.550" stroke="black" fill="none" stroke-linecap="round"></path><path d="M 171.000,119.500 C 171.062,123.562 170.472,122.139 173.000,125.500" stroke-width="5.006" stroke="black" fill="none" stroke-linecap="round"></path><path d="M 173.000,125.500 C 175.473,126.270 174.562,127.062 178.000,126.500" stroke-width="4.464" stroke="black" fill="none" stroke-linecap="round"></path><path d="M 178.000,126.500 C 181.021,126.748 180.973,126.770 184.000,126.500" stroke-width="4.245" stroke="black" fill="none" stroke-linecap="round"></path><path d="M 184.000,126.500 C 187.712,127.101 187.021,126.248 190.000,125.500" stroke-width="4.173" stroke="black" fill="none" stroke-linecap="round"></path><path d="M 190.000,125.500 C 192.644,122.755 192.712,123.601 194.000,119.500" stroke-width="4.014" stroke="black" fill="none" stroke-linecap="round"></path><path d="M 194.000,119.500 C 196.387,114.656 195.144,116.755 195.000,113.500" stroke-width="4.057" stroke="black" fill="none" stroke-linecap="round"></path><path d="M 195.000,113.500 C 190.217,112.529 193.387,112.156 188.000,114.500" stroke-width="4.728" stroke="black" fill="none" stroke-linecap="round"></path><path d="M 188.000,114.500 C 186.548,117.937 185.717,116.529 186.000,121.500" stroke-width="4.146" stroke="black" fill="none" stroke-linecap="round"></path><path d="M 186.000,121.500 C 184.175,125.858 185.548,124.437 186.000,127.500" stroke-width="4.107" stroke="black" fill="none" stroke-linecap="round"></path><path d="M 186.000,127.500 C 191.486,131.297 189.175,130.358 196.000,130.500" stroke-width="4.243" stroke="black" fill="none" stroke-linecap="round"></path><path d="M 196.000,130.500 C 201.060,128.380 199.986,129.797 203.000,124.500" stroke-width="3.747" stroke="black" fill="none" stroke-linecap="round"></path><path d="M 203.000,124.500 C 204.738,118.527 205.560,119.380 205.000,112.500" stroke-width="3.406" stroke="black" fill="none" stroke-linecap="round"></path><path d="M 205.000,112.500 C 206.675,105.635 205.238,107.027 204.000,101.500" stroke-width="3.409" stroke="black" fill="none" stroke-linecap="round"></path><path d="M 204.000,101.500 C 199.467,96.812 201.175,97.135 194.000,95.500" stroke-width="3.299" stroke="black" fill="none" stroke-linecap="round"></path><path d="M 194.000,95.500 C 186.393,94.576 186.967,93.812 179.000,95.500" stroke-width="3.075" stroke="black" fill="none" stroke-linecap="round"></path><path d="M 179.000,95.500 C 170.231,96.756 170.393,96.576 162.000,99.500" stroke-width="2.858" stroke="black" fill="none" stroke-linecap="round"></path><path d="M 162.000,99.500 C 153.413,105.065 156.731,101.256 152.000,104.500" stroke-width="3.161" stroke="black" fill="none" stroke-linecap="round"></path><path d="M 152.000,104.500 C 154.487,100.991 150.913,104.065 157.000,97.500" stroke-width="4.249" stroke="black" fill="none" stroke-linecap="round"></path><path d="M 157.000,97.500 C 162.371,87.392 163.487,88.491 170.000,79.500" stroke-width="2.797" stroke="black" fill="none" stroke-linecap="round"></path><path d="M 170.000,79.500 C 177.334,72.315 176.871,72.392 186.000,67.500" stroke-width="2.582" stroke="black" fill="none" stroke-linecap="round"></path><path d="M 186.000,67.500 C 195.706,62.359 195.334,62.315 206.000,59.500" stroke-width="2.511" stroke="black" fill="none" stroke-linecap="round"></path><path d="M 292.000,32.500 C 286.919,31.921 287.000,32.500 282.000,32.500" stroke-width="5.188" stroke="black" fill="none" stroke-linecap="round"></path><path d="M 282.000,32.500 C 278.192,32.904 278.419,32.921 275.000,34.500" stroke-width="4.186" stroke="black" fill="none" stroke-linecap="round"></path><path d="M 275.000,34.500 C 271.992,36.065 272.192,35.904 270.000,38.500" stroke-width="4.115" stroke="black" fill="none" stroke-linecap="round"></path><path d="M 270.000,38.500 C 267.003,41.690 267.492,41.565 266.000,45.500" stroke-width="3.901" stroke="black" fill="none" stroke-linecap="round"></path><path d="M 266.000,45.500 C 265.231,51.489 264.503,51.190 265.000,57.500" stroke-width="3.390" stroke="black" fill="none" stroke-linecap="round"></path><path d="M 265.000,57.500 C 264.397,64.566 264.731,64.489 265.000,71.500" stroke-width="3.170" stroke="black" fill="none" stroke-linecap="round"></path><path d="M 265.000,71.500 C 265.631,76.119 265.397,76.066 267.000,80.500" stroke-width="3.490" stroke="black" fill="none" stroke-linecap="round"></path><path d="M 267.000,80.500 C 268.634,83.949 268.131,84.119 270.000,87.500" stroke-width="3.709" stroke="black" fill="none" stroke-linecap="round"></path><path d="M 270.000,87.500 C 271.235,90.442 271.134,90.449 272.000,93.500" stroke-width="3.974" stroke="black" fill="none" stroke-linecap="round"></path><path d="M 272.000,93.500 C 273.000,96.500 272.735,96.442 273.000,99.500" stroke-width="4.091" stroke="black" fill="none" stroke-linecap="round"></path><path d="M 273.000,99.500 C 273.176,102.756 273.000,102.500 272.000,105.500" stroke-width="4.080" stroke="black" fill="none" stroke-linecap="round"></path><path d="M 272.000,105.500 C 269.616,109.577 270.176,109.756 267.000,113.500" stroke-width="3.745" stroke="black" fill="none" stroke-linecap="round"></path><path d="M 267.000,113.500 C 263.660,118.620 263.616,118.577 260.000,123.500" stroke-width="3.402" stroke="black" fill="none" stroke-linecap="round"></path><path d="M 260.000,123.500 C 256.210,128.688 256.160,128.620 252.000,133.500" stroke-width="3.203" stroke="black" fill="none" stroke-linecap="round"></path><path d="M 252.000,133.500 C 246.000,140.159 249.210,136.688 246.000,139.500" stroke-width="3.569" stroke="black" fill="none" stroke-linecap="round"></path><path d="M 246.000,139.500 C 248.727,134.796 246.000,138.659 252.000,130.500" stroke-width="4.374" stroke="black" fill="none" stroke-linecap="round"></path><path d="M 252.000,130.500 C 257.635,124.944 256.727,124.296 262.000,118.500" stroke-width="3.179" stroke="black" fill="none" stroke-linecap="round"></path><path d="M 262.000,118.500 C 268.009,109.264 268.135,109.444 273.000,99.500" stroke-width="2.635" stroke="black" fill="none" stroke-linecap="round"></path><path d="M 273.000,99.500 C 279.596,86.740 279.509,86.764 285.000,73.500" stroke-width="2.233" stroke="black" fill="none" stroke-linecap="round"></path><path d="M 285.000,73.500 C 289.476,62.130 289.596,62.240 293.000,50.500" stroke-width="2.231" stroke="black" fill="none" stroke-linecap="round"></path><path d="M 293.000,50.500 C 294.370,41.759 294.476,45.630 295.000,40.500" stroke-width="2.998" stroke="black" fill="none" stroke-linecap="round"></path><path d="M 295.000,40.500 C 295.708,43.667 295.370,39.759 295.000,46.500" stroke-width="4.176" stroke="black" fill="none" stroke-linecap="round"></path><path d="M 295.000,46.500 C 293.500,49.500 294.208,49.667 292.000,52.500" stroke-width="4.075" stroke="black" fill="none" stroke-linecap="round"></path><path d="M 292.000,52.500 C 288.409,59.456 288.500,59.500 285.000,66.500" stroke-width="3.199" stroke="black" fill="none" stroke-linecap="round"></path><path d="M 285.000,66.500 C 280.285,74.739 280.909,74.956 277.000,83.500" stroke-width="2.744" stroke="black" fill="none" stroke-linecap="round"></path><path d="M 277.000,83.500 C 274.461,90.904 274.285,90.739 273.000,98.500" stroke-width="2.879" stroke="black" fill="none" stroke-linecap="round"></path><path d="M 273.000,98.500 C 271.008,104.540 271.961,103.904 272.000,109.500" stroke-width="3.231" stroke="black" fill="none" stroke-linecap="round"></path><path d="M 272.000,109.500 C 273.572,113.313 272.508,112.040 276.000,113.500" stroke-width="4.191" stroke="black" fill="none" stroke-linecap="round"></path><path d="M 276.000,113.500 C 281.787,113.484 280.072,113.813 285.000,110.500" stroke-width="4.314" stroke="black" fill="none" stroke-linecap="round"></path><path d="M 285.000,110.500 C 287.986,105.680 288.787,106.984 290.000,100.500" stroke-width="3.625" stroke="black" fill="none" stroke-linecap="round"></path><path d="M 290.000,100.500 C 293.652,92.316 291.486,96.680 292.000,92.500" stroke-width="3.738" stroke="black" fill="none" stroke-linecap="round"></path><path d="M 292.000,92.500 C 286.500,97.000 289.152,92.816 281.000,101.500" stroke-width="4.165" stroke="black" fill="none" stroke-linecap="round"></path><path d="M 281.000,101.500 C 275.576,106.098 275.500,106.000 270.000,110.500" stroke-width="3.257" stroke="black" fill="none" stroke-linecap="round"></path><path d="M 270.000,110.500 C 261.093,114.912 266.076,113.598 262.000,116.500" stroke-width="3.451" stroke="black" fill="none" stroke-linecap="round"></path><path d="M 262.000,116.500 C 268.290,118.642 263.093,118.412 274.000,117.500" stroke-width="4.278" stroke="black" fill="none" stroke-linecap="round"></path><path d="M 274.000,117.500 C 280.792,115.009 280.790,116.142 287.000,111.500" stroke-width="3.340" stroke="black" fill="none" stroke-linecap="round"></path><path d="M 287.000,111.500 C 293.582,109.058 292.292,108.509 297.000,104.500" stroke-width="3.234" stroke="black" fill="none" stroke-linecap="round"></path><path d="M 297.000,104.500 C 299.508,99.814 299.582,101.058 299.000,95.500" stroke-width="3.513" stroke="black" fill="none" stroke-linecap="round"></path><path d="M 299.000,95.500 C 298.516,89.610 298.508,91.314 295.000,87.500" stroke-width="3.632" stroke="black" fill="none" stroke-linecap="round"></path><path d="M 295.000,87.500 C 287.135,84.404 288.516,83.610 279.000,83.500" stroke-width="2.982" stroke="black" fill="none" stroke-linecap="round"></path><path d="M 279.000,83.500 C 269.000,83.500 269.135,82.404 259.000,83.500" stroke-width="2.692" stroke="black" fill="none" stroke-linecap="round"></path><path d="M 259.000,83.500 C 252.030,82.160 252.500,83.500 246.000,83.500" stroke-width="3.021" stroke="black" fill="none" stroke-linecap="round"></path><path d="M 246.000,83.500 C 239.703,86.365 243.030,84.160 241.000,87.500" stroke-width="3.656" stroke="black" fill="none" stroke-linecap="round"></path><path d="M 241.000,87.500 C 247.386,89.870 243.703,89.865 254.000,90.500" stroke-width="3.916" stroke="black" fill="none" stroke-linecap="round"></path><path d="M 254.000,90.500 C 268.537,92.129 268.386,91.870 283.000,91.500" stroke-width="2.343" stroke="black" fill="none" stroke-linecap="round"></path><path d="M 283.000,91.500 C 303.737,92.316 303.037,90.629 323.000,87.500" stroke-width="1.829" stroke="black" fill="none" stroke-linecap="round"></path></svg>