<svg xmlns="http://www.w3.org/2000/svg" version="1.1" xmlns:xlink="http://www.w3.org/1999/xlink" width="494.9754984965619" height="200" viewBox="0.15343137085437775 10.247727394104004 88.4067611694336 29.76227569580078"><path d="M6.91 22.93L6.91 22.93Q7.17 22.83 8.53 23.14Q9.88 23.46 10.81 23.46Q11.74 23.46 12.08 23.64Q12.42 23.83 12.61 23.79Q12.79 23.75 12.71 23.86Q12.64 23.96 12.12 24.19Q11.60 24.41 11.45 24.35Q11.29 24.28 11.06 24.42Q10.84 24.57 10.69 24.49Q10.55 24.41 10.32 24.57Q10.10 24.73 9.16 24.73Q8.22 24.73 7.29 24.90Q6.35 25.08 5.90 25.22Q5.45 25.37 5.29 25.33Q5.14 25.29 4.11 25.50Q3.09 25.70 2.27 26.01Q1.45 26.31 1.14 25.97Q0.84 25.63 0.37 25.31Q-0.10 25 0.45 24.57Q1.00 24.14 1.75 23.69Q2.50 23.24 3.78 23.12Q5.06 22.99 5.63 23.02Q6.19 23.05 6.44 23.03Q6.68 23.01 6.91 22.93ZM13.54 22.48L13.54 22.48Q15.27 21.31 15.66 21.17Q16.05 21.04 16.32 21.27Q16.58 21.50 16.63 21.85Q16.68 22.19 16.43 23.34Q16.17 24.49 16.43 24.28Q16.68 24.06 17.15 23.85Q17.62 23.63 18.33 23.38Q19.04 23.13 19.67 23.16Q20.29 23.20 20.62 23.47Q20.94 23.73 21.03 23.90Q21.11 24.06 21.26 24.38Q21.41 24.69 21.41 24.76Q21.41 24.82 21.45 25.05Q21.48 25.27 21.41 25.79Q21.33 26.31 20.99 27.04Q20.64 27.77 19.96 28.41Q19.28 29.04 18.79 29.32Q18.30 29.59 17.74 29.80Q17.19 30.02 16.59 30.11Q16.00 30.20 15.65 29.94Q15.31 29.69 15.30 29.37Q15.29 29.04 15.51 28.63Q15.72 28.22 15.95 27.90Q16.17 27.58 16.70 27.14Q17.23 26.70 17.80 26.45Q18.38 26.19 18.71 26.12Q19.04 26.05 18.27 26.58Q17.50 27.11 16.92 27.62Q16.35 28.13 16.55 28.36Q16.76 28.59 17.29 28.39Q17.83 28.18 18.86 27.17Q19.88 26.15 19.52 25.42Q19.16 24.69 18.13 25.07Q17.11 25.45 16.31 26.15Q15.51 26.86 14.63 28.99Q13.75 31.13 13.38 32.16Q13.01 33.18 12.39 34.98Q11.78 36.78 10.96 38.47Q10.14 40.16 9.62 39.95Q9.10 39.75 8.98 39.39Q8.87 39.04 8.92 38.65Q8.96 38.26 9.24 37.67Q9.51 37.07 9.98 35.68Q10.45 34.30 11.96 30.34Q13.48 26.39 13.76 25.65Q14.04 24.92 14.49 23.50Q14.94 22.07 14.58 22.20Q14.22 22.32 13.01 22.98Q11.80 23.63 13.54 22.48ZM27.87 15.55L27.87 15.55Q28.30 15.90 28.39 17.08Q28.48 18.26 29.20 19.38Q29.92 20.51 30.90 21.17Q31.88 21.84 32.69 22.11Q33.50 22.38 32.64 22.24Q31.78 22.09 30.93 21.55Q30.08 21.02 29.10 19.95Q28.13 18.89 27.68 18.39Q27.23 17.89 27.04 17.83Q26.86 17.77 26.73 17.74Q26.60 17.71 26.14 17.35Q25.68 16.99 25.81 16.46Q25.94 15.94 26.15 15.68Q26.37 15.43 26.90 15.30Q27.44 15.18 27.87 15.55ZM24.75 21.46L24.75 21.46Q25.18 21.37 25.73 21.52Q26.29 21.68 25.93 22.66Q25.57 23.63 25.14 25.20Q24.71 26.76 24.33 27.73Q23.95 28.71 23.48 29.42Q23.01 30.14 22.58 30.20Q22.15 30.25 21.98 30.17Q21.82 30.08 21.95 29.26Q22.09 28.44 22.53 26.75Q22.97 25.06 23.36 23.81Q23.75 22.56 23.37 22.53Q22.99 22.50 23.66 22.03Q24.34 21.56 24.75 21.46ZM32.03 15.94L32.03 15.94Q32.81 14.71 33.33 14.94Q33.85 15.18 33.89 15.55Q33.93 15.92 32.20 19.36Q30.47 22.79 29.70 25.75Q28.93 28.71 29.16 29.08Q29.39 29.45 30 29.30Q30.61 29.14 33.09 27.61Q35.57 26.07 36.13 25.60Q36.70 25.12 35.41 26.32Q34.12 27.52 33.47 28.12Q32.81 28.71 32.17 29.40Q31.52 30.10 30.60 30.61Q29.67 31.11 28.97 31.16Q28.28 31.21 27.96 30.84Q27.64 30.47 27.34 29.94Q27.05 29.41 27.29 28.00Q27.54 26.58 28.65 23.38Q29.77 20.18 30.51 18.66Q31.25 17.15 32.03 15.94ZM36.04 22.56L36.04 22.56Q36.41 22.21 36.94 22.11Q37.48 22.01 37.83 22.17Q38.18 22.32 38.43 22.72Q38.67 23.13 39.65 23.11Q40.63 23.09 42.08 23.12Q43.54 23.14 41.46 23.20Q39.39 23.26 39.11 23.37Q38.83 23.48 38.88 24.06Q38.93 24.65 38.96 25.30Q38.98 25.96 38.96 26.76Q38.95 27.56 38.85 27.95Q38.75 28.34 38.55 28.77Q38.36 29.20 37.98 29.68Q37.60 30.16 37.04 30.57Q36.48 30.98 36.02 31.18Q35.55 31.39 35 31.20Q34.45 31.02 34.11 30.62Q33.77 30.21 33.56 29.79Q33.36 29.36 33.39 28.28Q33.42 27.21 33.62 26.55Q33.83 25.90 34.26 25.19Q34.69 24.47 34.51 24.52Q34.34 24.57 34.42 24.47Q34.51 24.38 35.10 23.63Q35.68 22.89 36.04 22.56ZM37.01 25.63L37.01 25.63Q36.58 25.10 35.94 25.92Q35.29 26.74 35.17 27.66Q35.04 28.57 35.26 28.95Q35.49 29.32 35.73 29.38Q35.98 29.43 36.43 29.05Q36.88 28.67 37.16 27.40Q37.44 26.13 37.01 25.63ZM44.59 17.36L44.59 17.36Q44.82 17.09 45.33 17.13Q45.84 17.17 46.07 17.44Q46.31 17.71 46.46 18.11Q46.62 18.50 46.41 18.93Q46.19 19.36 46.00 20.05Q45.80 20.74 45.49 21.99Q45.18 23.24 45.53 23.40Q45.88 23.55 46.74 23.71Q47.60 23.87 49.48 23.83Q51.37 23.79 49.28 24.10Q47.19 24.41 46.18 24.67Q45.18 24.92 44.85 25.03Q44.53 25.14 43.76 27.20Q42.99 29.26 42.74 29.94Q42.50 30.63 42.23 30.86Q41.95 31.09 41.52 31.21Q41.09 31.33 40.74 31.17Q40.39 31.02 40.75 29.90Q41.11 28.79 41.74 27.27Q42.36 25.74 42.42 25.37Q42.48 25 41.91 25.10Q41.35 25.20 40.91 25.21Q40.47 25.21 40.48 24.66Q40.49 24.10 41.19 23.75Q41.89 23.40 42.44 23.39Q42.99 23.38 43.42 21.87Q43.85 20.35 43.93 19.85Q44.00 19.36 44.18 18.50Q44.36 17.64 44.59 17.36ZM54.06 10.35L54.06 10.35Q54.26 10.20 54.73 10.27Q55.20 10.35 55.66 10.74Q56.13 11.13 55.55 11.90Q54.96 12.68 54.22 13.98Q53.48 15.29 52.47 17.57Q51.46 19.84 51.62 20.49Q51.78 21.13 52.28 21.57Q52.77 22.01 53.93 21.98Q55.08 21.95 58.24 21.79Q61.41 21.62 58.71 21.87Q56.02 22.11 54.68 22.31Q53.34 22.52 53.75 23.65Q54.16 24.79 54.27 25.38Q54.38 25.98 54.28 26.65Q54.18 27.32 53.67 28.07Q53.16 28.81 52.59 29.35Q52.01 29.88 51.42 30.05Q50.82 30.21 50.08 30.03Q49.34 29.84 48.81 29.29Q48.28 28.73 48.05 27.65Q47.81 26.56 47.86 25.49Q47.91 24.41 48.80 22.07Q49.69 19.73 50.33 18.32Q50.98 16.91 52.11 14.26Q53.24 11.60 53.44 11.21Q53.63 10.82 54.06 10.35ZM51.41 23.81L51.41 23.81Q50.86 23.11 50.40 23.77Q49.94 24.43 49.85 25.10Q49.77 25.76 49.80 26.32Q49.84 26.88 50.14 27.44Q50.43 28.01 50.96 27.99Q51.48 27.97 51.86 27.55Q52.23 27.13 52.37 26.53Q52.52 25.94 52.24 25.21Q51.95 24.49 51.41 23.81ZM58.95 22.56L58.95 22.56Q59.32 22.21 59.85 22.11Q60.39 22.01 60.74 22.17Q61.09 22.32 61.34 22.72Q61.58 23.13 62.56 23.11Q63.54 23.09 64.99 23.12Q66.45 23.14 64.38 23.20Q62.30 23.26 62.02 23.37Q61.74 23.48 61.79 24.06Q61.84 24.65 61.87 25.30Q61.89 25.96 61.88 26.76Q61.86 27.56 61.76 27.95Q61.66 28.34 61.46 28.77Q61.27 29.20 60.89 29.68Q60.51 30.16 59.95 30.57Q59.39 30.98 58.93 31.18Q58.46 31.39 57.91 31.20Q57.36 31.02 57.02 30.62Q56.68 30.21 56.47 29.79Q56.27 29.36 56.30 28.28Q56.33 27.21 56.53 26.55Q56.74 25.90 57.17 25.19Q57.60 24.47 57.42 24.52Q57.25 24.57 57.33 24.47Q57.42 24.38 58.01 23.63Q58.59 22.89 58.95 22.56ZM59.92 25.63L59.92 25.63Q59.49 25.10 58.85 25.92Q58.20 26.74 58.08 27.66Q57.95 28.57 58.17 28.95Q58.40 29.32 58.64 29.38Q58.89 29.43 59.34 29.05Q59.79 28.67 60.07 27.40Q60.35 26.13 59.92 25.63ZM70.59 23.09L70.59 23.09Q70.96 22.70 71.46 22.83Q71.97 22.97 72.19 23.28Q72.40 23.59 72.33 23.93Q72.27 24.26 72.30 25.15Q72.34 26.04 72.16 27.70Q71.97 29.36 71.80 30.47Q71.62 31.58 71.00 33.04Q70.37 34.49 69.36 35.77Q68.34 37.05 66.96 38.00Q65.59 38.95 64.51 39.40Q63.44 39.86 62.81 39.96Q62.19 40.06 61.60 39.96Q61.02 39.86 60.59 39.11Q60.16 38.36 61.00 36.92Q61.84 35.49 61.28 36.78Q60.72 38.07 61.92 38.21Q63.13 38.36 63.96 37.91Q64.80 37.46 65.92 36.54Q67.03 35.63 67.63 34.95Q68.22 34.28 68.94 32.97Q69.65 31.66 70.03 30Q70.41 28.34 70.46 27.54Q70.51 26.74 70.48 26.61Q70.45 26.48 70.12 26.72Q69.79 26.95 69.42 27.34Q69.06 27.73 68.64 28.10Q68.22 28.46 67.34 29.11Q66.46 29.77 65.88 29.79Q65.29 29.80 64.74 29.57Q64.18 29.34 63.92 28.85Q63.65 28.36 63.65 27.72Q63.65 27.09 63.75 26.81Q63.85 26.52 64.28 24.94Q64.71 23.36 65.22 23.13Q65.74 22.91 66.04 22.93Q66.35 22.95 66.52 23.27Q66.70 23.59 66.48 24.06Q66.27 24.53 65.94 25.64Q65.61 26.76 65.67 27.36Q65.74 27.97 66.22 27.78Q66.70 27.60 67.13 27.28Q67.56 26.95 67.92 26.55Q68.28 26.15 69.26 24.81Q70.23 23.48 70.59 23.09ZM79.20 12.05L79.20 12.05Q79.53 11.80 80.05 11.88Q80.57 11.97 80.82 12.30Q81.07 12.64 81.18 13.11Q81.29 13.57 81.06 13.89Q80.84 14.20 81.12 14.38Q81.41 14.57 83.12 15.13Q84.82 15.68 85.89 16.45Q86.95 17.21 87.65 18.30Q88.34 19.39 88.45 19.86Q88.55 20.33 88.56 21.31Q88.57 22.29 88.08 23.06Q87.58 23.83 86.77 24.78Q85.96 25.72 84.99 26.76Q84.02 27.79 82.33 28.87Q80.64 29.94 79.06 30.58Q77.48 31.21 75.95 31.46Q74.41 31.72 74.02 31.62Q73.63 31.52 73.56 31.03Q73.50 30.53 73.73 28.55Q73.96 26.58 76.05 20.20Q78.14 13.81 78.25 13.38Q78.36 12.95 78.61 12.63Q78.87 12.30 79.20 12.05ZM81.97 16.95L81.97 16.95Q80.74 16.56 80.16 16.36Q79.57 16.15 79.23 17.22Q78.89 18.28 78.61 19.05Q78.34 19.82 77.98 20.94Q77.62 22.05 76.74 25.08Q75.86 28.11 75.73 28.70Q75.61 29.30 75.69 29.45Q75.78 29.61 77.26 29.20Q78.73 28.79 79.93 28.14Q81.13 27.50 82.79 26.11Q84.45 24.73 85.43 23.33Q86.41 21.93 86.39 21.18Q86.37 20.43 85.80 19.47Q85.23 18.52 84.23 17.92Q83.22 17.32 81.97 16.95Z" fill="blue"></path></svg>