<svg xmlns="http://www.w3.org/2000/svg" fill-current="blue" width="451.005" height="200" viewBox="-3.385 10.248 79.665 29.762"><path d="M1.25 22.48q1.74-1.17 2.13-1.31.39-.13.65.1.27.23.32.58.04.34-.21 1.49t0 .94q.25-.22.72-.43.47-.22 1.18-.47.72-.25 1.34-.22.63.04.95.31.32.26.41.43.09.16.23.48.15.31.15.38 0 .06.04.29.04.22-.04.74t-.42 1.25q-.34.73-1.02 1.37-.69.63-1.18.91-.48.27-1.04.48-.56.22-1.15.31-.6.09-.94-.17-.34-.25-.35-.57-.01-.33.2-.74.22-.41.44-.73.23-.32.75-.76.53-.44 1.11-.69.57-.26.91-.33.33-.07-.44.46-.78.53-1.35 1.04-.58.51-.37.74.2.23.74.03.54-.21 1.56-1.22 1.03-1.02.67-1.75t-1.39-.35q-1.03.38-1.83 1.08-.8.71-1.68 2.84-.88 2.14-1.25 3.17-.37 1.02-.98 2.82-.62 1.8-1.44 3.49-.82 1.69-1.34 1.48-.51-.2-.63-.56-.12-.35-.07-.74.05-.39.32-.98.28-.6.75-1.99.46-1.38 1.98-5.34 1.51-3.95 1.79-4.69.29-.73.74-2.15.45-1.43.08-1.3-.36.12-1.57.78-1.21.65.53-.5Zm14.34-6.93q.43.35.51 1.53.09 1.18.81 2.3.73 1.13 1.7 1.79.98.67 1.79.94.81.27-.05.13-.86-.15-1.71-.69-.85-.53-1.82-1.6-.98-1.06-1.43-1.56-.45-.5-.63-.56-.19-.06-.32-.09-.12-.03-.58-.39-.46-.36-.33-.89.12-.52.34-.78.21-.25.75-.38.54-.12.97.25Zm-3.13 5.91q.43-.09.99.06.55.16.19 1.14-.36.97-.79 2.54-.43 1.56-.81 2.53-.38.98-.85 1.69-.47.72-.9.78-.43.05-.59-.03-.17-.09-.03-.91.13-.82.57-2.51.44-1.69.83-2.94.39-1.25.01-1.28-.38-.03.3-.5.67-.47 1.08-.57Zm7.29-5.52q.78-1.23 1.29-1 .52.24.56.61.04.37-1.69 3.81-1.73 3.43-2.5 6.39-.77 2.96-.53 3.33.23.37.83.22.61-.16 3.09-1.69 2.48-1.54 3.05-2.01.56-.48-.72.72-1.29 1.2-1.95 1.8-.65.59-1.3 1.28-.64.7-1.57 1.21-.93.5-1.62.55-.69.05-1.02-.32-.32-.37-.61-.9T15.01 28q.24-1.42 1.36-4.62 1.11-3.2 1.85-4.72.74-1.51 1.53-2.72Zm4 6.62q.37-.35.91-.45.54-.1.89.06.35.15.59.55.25.41 1.22.39.98-.02 2.43.01 1.46.02-.61.08t-2.35.17q-.29.11-.24.69.05.59.08 1.24.03.66.01 1.46-.02.8-.12 1.19-.1.39-.29.82-.2.43-.58.91-.38.48-.93.89-.56.41-1.03.61-.47.21-1.02.02-.54-.18-.88-.58-.35-.41-.55-.83-.21-.43-.18-1.51.03-1.07.24-1.73.2-.65.63-1.36.43-.72.26-.67-.18.05-.09-.05.09-.09.67-.84.59-.74.94-1.07Zm.98 3.07q-.43-.53-1.08.29-.64.82-.77 1.74-.13.91.1 1.29.22.37.47.43.24.05.69-.33.45-.38.73-1.65.29-1.27-.14-1.77Zm7.57-8.27q.24-.27.75-.23.5.04.74.31.23.27.39.67.16.39-.06.82-.21.43-.41 1.12-.19.69-.51 1.94-.31 1.25.04 1.41.35.15 1.21.31t2.75.12q1.88-.04-.21.27t-3.09.57q-1.01.25-1.33.36-.32.11-1.1 2.17-.77 2.06-1.01 2.74-.25.69-.52.92-.27.23-.7.35-.43.12-.78-.04-.35-.15.01-1.27.36-1.11.98-2.63.63-1.53.69-1.9.06-.37-.51-.27-.57.1-1.01.11-.44 0-.43-.55.01-.56.72-.91.7-.35 1.25-.36.54-.01.97-1.52.43-1.52.51-2.02.08-.49.25-1.35.18-.86.41-1.14Zm9.48-7.01q.19-.15.66-.08.47.08.94.47.47.39-.12 1.16-.58.78-1.33 2.08-.74 1.31-1.74 3.59-1.01 2.27-.85 2.92.15.64.65 1.08.5.44 1.65.41 1.15-.03 4.32-.19 3.16-.17.47.08-2.7.24-4.04.44-1.34.21-.93 1.34.42 1.14.52 1.73.11.6.01 1.27t-.6 1.42q-.51.74-1.09 1.28-.57.53-1.17.7-.59.16-1.34-.02-.74-.19-1.27-.74-.52-.56-.76-1.64-.23-1.09-.18-2.16.05-1.08.93-3.42.89-2.34 1.54-3.75.64-1.41 1.77-4.06 1.14-2.66 1.33-3.05.2-.39.63-.86Zm-2.66 13.46q-.55-.7-1-.04-.46.66-.55 1.33-.09.66-.05 1.22.04.56.33 1.12.29.57.82.55.53-.02.9-.44t.52-1.02q.14-.59-.14-1.32-.28-.72-.83-1.4Zm7.54-1.25q.37-.35.91-.45.54-.1.89.06.35.15.59.55.25.41 1.22.39.98-.02 2.44.01 1.45.02-.62.08t-2.35.17q-.29.11-.24.69.05.59.08 1.24.03.66.01 1.46-.02.8-.12 1.19-.09.39-.29.82-.2.43-.58.91-.38.48-.93.89-.56.41-1.03.61-.47.21-1.01.02-.55-.18-.89-.58-.35-.41-.55-.83-.21-.43-.18-1.51.03-1.07.24-1.73.2-.65.63-1.36.43-.72.26-.67-.18.05-.09-.05.09-.09.67-.84.59-.74.94-1.07Zm.98 3.07q-.43-.53-1.08.29-.64.82-.77 1.74-.13.91.1 1.29.22.37.47.43.24.05.69-.33.45-.38.73-1.65.29-1.27-.14-1.77Zm10.66-2.54q.37-.39.88-.26.51.14.72.45.22.31.15.65-.07.33-.03 1.22.04.89-.15 2.55-.18 1.66-.36 2.77-.17 1.11-.8 2.57-.62 1.45-1.64 2.73T54.68 38q-1.38.95-2.45 1.4-1.08.46-1.7.56-.63.1-1.21 0-.59-.1-1.02-.85-.43-.75.41-2.19.84-1.43.28-.14-.55 1.29.65 1.43 1.2.15 2.04-.3.84-.45 1.95-1.37 1.12-.91 1.71-1.59.6-.67 1.31-1.98.71-1.31 1.09-2.97.39-1.66.43-2.46.05-.8.02-.93-.03-.13-.36.11-.33.23-.69.62-.36.39-.78.76-.42.36-1.3 1.01-.88.66-1.47.68-.58.01-1.14-.22-.56-.23-.82-.72-.26-.49-.26-1.13 0-.63.09-.91.1-.29.53-1.87.43-1.58.95-1.81.52-.22.82-.2.3.02.48.34.17.32-.04.79-.22.47-.55 1.58-.33 1.12-.26 1.72.07.61.55.42.47-.18.9-.5.43-.33.79-.73.37-.4 1.34-1.74.98-1.33 1.33-1.72Zm8.61-11.04q.34-.25.85-.17.52.09.78.42.25.34.36.81.1.46-.12.78-.23.31.06.49.28.19 1.99.75 1.71.55 2.77 1.32 1.07.76 1.76 1.85t.8 1.56q.11.47.12 1.45.01.98-.49 1.75t-1.31 1.72q-.81.94-1.77 1.98-.97 1.03-2.66 2.11-1.69 1.07-3.27 1.71-1.58.63-3.12.88-1.53.26-1.92.16-.39-.1-.46-.59-.07-.5.17-2.48.23-1.97 2.32-8.35 2.09-6.39 2.2-6.82.1-.43.36-.75.25-.33.58-.58Zm2.78 4.9q-1.23-.39-1.82-.59-.58-.21-.93.86-.34 1.06-.61 1.83-.28.77-.64 1.89-.36 1.11-1.24 4.14-.88 3.03-1 3.62-.13.6-.04.75.09.16 1.56-.25 1.48-.41 2.68-1.06 1.2-.64 2.86-2.03 1.66-1.38 2.63-2.78.98-1.4.96-2.15-.02-.75-.58-1.71-.57-.95-1.58-1.55-1-.6-2.25-.97Z"/></svg>