<svg xmlns="http://www.w3.org/2000/svg" version="1.1" xmlns:xlink="http://www.w3.org/1999/xlink" width="316.1465345842815" height="200" viewBox="-1.6800000667572021 14.15999984741211 83.19999694824219 48.959999084472656"><path d="M2 35.12L0.68 35.28Q1.52 36.92 1.96 39.64L1.96 39.64Q2 37.32 2 35.12L2 35.12ZM11.08 35.20L9.96 36.32Q7.28 38.40 3.08 40.48L3.08 40.48Q2.92 47.16 2.36 58.44L2.36 58.44L1.24 59.56Q1.20 58.40 1.32 54.74Q1.44 51.08 1.38 47.62Q1.32 44.16 0.96 41.52L0.96 41.52L-1.68 42.76L-0.56 41.64L0.88 40.96Q0.28 37.20-1.04 35.44L-1.04 35.44L0.08 34.32L2 34.12Q2 29.20 1.64 28.20L1.64 28.20Q1.52 27.92 1.28 27.64L1.28 27.64L0.68 28.24L0.56 26.88L1.68 25.76Q1.80 25.92 2.06 26.16Q2.32 26.40 2.50 26.62Q2.68 26.84 2.76 27.08L2.76 27.08Q3.08 28 3.12 33.08L3.12 33.08L3.12 34Q10.40 33.20 11.08 34.20L11.08 34.20Q11.16 34.32 11.16 34.48Q11.16 34.64 11.12 34.86Q11.08 35.08 11.08 35.20L11.08 35.20ZM10 36L10 36Q10.08 35.52 9.96 35.32L9.96 35.32Q9.32 34.40 3.12 35L3.12 35Q3.12 37.36 3.08 39.92L3.08 39.92Q7.44 37.80 10 36ZM11.28 40.40L10.16 41.52Q10.16 40.76 10.12 40.30Q10.08 39.84 10.20 39.12Q10.32 38.40 10.38 38Q10.44 37.60 10.64 36.92L10.64 36.92L10.96 35.84Q11.08 35.48 11.36 34.80L11.36 34.80L11.76 33.76L12.20 32.64Q12.48 31.96 12.68 31.52L12.68 31.52L13.80 30.40Q13.80 30.52 13.54 33.70Q13.28 36.88 13.48 39.16Q13.68 41.44 14.60 41.72L14.60 41.72Q14.92 41.80 15.22 41.60Q15.52 41.40 15.88 41Q16.24 40.60 16.44 40.48L16.44 40.48L15.32 41.60Q15.12 41.76 14.76 42.14Q14.40 42.52 14.10 42.72Q13.80 42.92 13.48 42.84L13.48 42.84Q12.88 42.68 12.58 41.74Q12.28 40.80 12.30 39.10Q12.32 37.40 12.36 36.36Q12.40 35.32 12.56 33.48L12.56 33.48Q11.08 37.32 11.28 40.40L11.28 40.40ZM12.60 26.88Q12.84 27.12 12.84 27.44Q12.84 27.76 12.60 28Q12.36 28.24 12.04 28.24Q11.72 28.24 11.48 28Q11.24 27.76 11.24 27.44Q11.24 27.12 11.48 26.88Q11.72 26.64 12.04 26.64Q12.36 26.64 12.60 26.88ZM20.52 16.12L21.40 15.24L21.64 15.88L20.76 16.76L20.64 16.36Q19.56 18.28 18.78 21.94Q18 25.60 17.62 29.86Q17.24 34.12 17.06 37.14Q16.88 40.16 16.84 42.80L16.84 42.80L15.96 43.68Q16.04 40.72 16.24 37.44Q16.44 34.16 16.90 29.52Q17.36 24.88 18.30 21.20Q19.24 17.52 20.52 16.12L20.52 16.12ZM26.24 36.64L25.12 37.76Q23.20 39.52 21.20 40.36L21.20 40.36Q19.36 41.16 19.52 39.92L19.52 39.92Q19.60 39 20.80 37.08L20.80 37.08L21.92 35.96Q19.60 39.72 21.36 39.52L21.36 39.52Q22.72 39.36 25.36 37.40L25.36 37.40Q25.96 36.16 24.52 36.20L24.52 36.20Q24.16 36.20 23.28 36.32L23.28 36.32Q22.68 36.40 22.44 36.40L22.44 36.40L23.56 35.28Q23.68 35.28 24.80 35.12L24.80 35.12Q24 33.92 21.92 35.96L21.92 35.96L22.44 35.44L23.12 34.76Q23.40 34.48 23.78 34.14Q24.16 33.80 24.48 33.68Q24.80 33.56 25.12 33.52Q25.44 33.48 25.72 33.74Q26 34 26.16 34.52L26.16 34.52L25.64 35.04Q26.40 35.04 26.60 35.34Q26.80 35.64 26.24 36.64L26.24 36.64ZM25.68 32.12L24.56 33.24Q24.36 33.20 24.18 33.16Q24 33.12 23.90 33.10Q23.80 33.08 23.76 33.06Q23.72 33.04 23.64 33.04L23.64 33.04L23.56 33.04Q23.52 33.04 23.36 33.08Q23.20 33.12 23.08 33.16L23.08 33.16L24.20 32.04Q26.04 30.84 28.20 29.88L28.20 29.88Q28.76 25.16 28.80 22.32L28.80 22.32Q28.36 18.44 28.36 15.80L28.36 15.80L29.48 14.68Q30 17.68 29.92 21.16L29.92 21.16L30.04 22.12L29.88 22.28Q29.80 24.84 29.24 29.40L29.24 29.40Q30.76 28.76 32.96 28L32.96 28L31.84 29.12Q30.28 29.68 29.16 30.12L29.16 30.12Q28.68 34.08 28.52 36.12L28.52 36.12Q28.52 36.40 28.44 37.18Q28.36 37.96 28.34 38.36Q28.32 38.76 28.30 39.46Q28.28 40.16 28.40 40.60Q28.52 41.04 28.70 41.58Q28.88 42.12 29.24 42.52Q29.60 42.92 30.08 43.24L30.08 43.24L28.96 44.36Q28.44 44.04 28.10 43.64Q27.76 43.24 27.56 42.70Q27.36 42.16 27.26 41.72Q27.16 41.28 27.16 40.58Q27.16 39.88 27.18 39.48Q27.20 39.08 27.28 38.30Q27.36 37.52 27.40 37.24L27.40 37.24Q27.56 35.24 28.12 30.52L28.12 30.52Q26.48 31.24 25.08 31.96L25.08 31.96Q25.36 32.04 25.68 32.12L25.68 32.12ZM38.60 39.80L38.60 39.80Q39.12 39.08 39.24 38.64L39.24 38.64Q39.84 36.32 34.36 36.52L34.36 36.52Q34 37.84 33.88 38.82Q33.76 39.80 33.90 40.56Q34.04 41.32 34.52 41.52Q35 41.72 36.04 41.32Q37.08 40.92 38.60 39.80ZM30.32 36.84L31.44 35.72L34.12 34.72Q35.08 31.72 37.36 26.08Q39.64 20.44 40.56 17.64L40.56 17.64L41.68 16.52Q41.40 17.60 40.48 20.66Q39.56 23.72 39.08 25.82Q38.60 27.92 38.44 30.12L38.44 30.12L37.32 31.24Q37.52 28.48 38.40 25.12L38.40 25.12Q36.16 30.76 35.16 33.84L35.16 33.84L35 34.40Q38.52 33.16 41.36 32.76L41.36 32.76L40.24 33.88Q37.72 34.28 34.72 35.24L34.72 35.24L34.68 35.44Q35.76 35.32 36.84 35.38Q37.92 35.44 38.80 35.60Q39.68 35.76 40.12 36.26Q40.56 36.76 40.36 37.52L40.36 37.52Q40.28 37.80 40.12 38.08Q39.96 38.36 39.72 38.70Q39.48 39.04 39.36 39.24L39.36 39.24L38.24 40.36Q36.64 41.60 35.52 42.20Q34.40 42.80 33.80 42.72Q33.20 42.64 32.92 42.20Q32.64 41.76 32.70 40.82Q32.76 39.88 32.96 38.88Q33.16 37.88 33.56 36.56L33.56 36.56Q32.76 36.60 31.64 36.72Q30.52 36.84 30.32 36.84L30.32 36.84ZM46.32 36.64L45.20 37.76Q43.28 39.52 41.28 40.36L41.28 40.36Q39.44 41.16 39.60 39.92L39.60 39.92Q39.68 39 40.88 37.08L40.88 37.08L42 35.96Q39.68 39.72 41.44 39.52L41.44 39.52Q42.80 39.36 45.44 37.40L45.44 37.40Q46.04 36.16 44.60 36.20L44.60 36.20Q44.24 36.20 43.36 36.32L43.36 36.32Q42.76 36.40 42.52 36.40L42.52 36.40L43.64 35.28Q43.76 35.28 44.88 35.12L44.88 35.12Q44.08 33.92 42 35.96L42 35.96L42.52 35.44L43.20 34.76Q43.48 34.48 43.86 34.14Q44.24 33.80 44.56 33.68Q44.88 33.56 45.20 33.52Q45.52 33.48 45.80 33.74Q46.08 34 46.24 34.52L46.24 34.52L45.72 35.04Q46.48 35.04 46.68 35.34Q46.88 35.64 46.32 36.64L46.32 36.64ZM44.04 62L42.92 63.12Q43.40 61.24 46.18 51.38Q48.96 41.52 50.16 36.20L50.16 36.20Q49.24 37.80 48.00 39.28L48.00 39.28L46.88 40.40Q46.08 39.72 45.90 38.48Q45.72 37.24 45.90 36.10Q46.08 34.96 45.96 33.72Q45.84 32.48 45.12 31.80L45.12 31.80Q45.04 32.20 44.84 34.44L44.84 34.44L43.72 35.56Q43.72 35.36 43.78 34.70Q43.84 34.04 43.88 33.76L43.88 33.76L44.00 33.04Q44.08 32.52 44.20 32.12Q44.32 31.72 44.52 31.32L44.52 31.32L45.64 30.20Q46.72 30.80 47.00 32.02Q47.28 33.24 47.08 34.46Q46.88 35.68 47.00 37.04Q47.12 38.40 47.88 39.16L47.88 39.16Q50.08 36.12 50.92 32.72L50.92 32.72L52.04 31.60Q51.84 32.68 51.56 33.84L51.56 33.84L51.08 36Q50.88 37 50.52 38.32L50.52 38.32L50.00 40.48L49.40 42.80L48.84 44.92L48.20 47.20Q47.72 48.88 47.58 49.34Q47.44 49.80 46.92 51.64Q46.40 53.48 46.32 53.80L46.32 53.80Q48.48 49.12 51.68 44.40L51.68 44.40L52.80 43.28Q46.56 52.56 44.04 62L44.04 62ZM48.28 33.44L48.28 33.44Q46.60 35.28 45.88 36.96L45.88 36.96Q44.32 40.68 46.00 43.02Q47.68 45.36 51.76 44.96L51.76 44.96Q52.28 44.92 52.76 44.84L52.76 44.84Q52.92 44 53.44 41.76L53.44 41.76Q54.92 35.32 54.60 33.40L54.60 33.40Q54.00 29.60 48.28 33.44ZM70.40 18.88L70.40 18.88L68.72 19.64L67.20 20.32Q66.56 20.60 65.50 21.16Q64.44 21.72 64.00 21.92Q63.56 22.12 62.28 22.80L62.28 22.80L60.84 23.60L59.16 24.52Q57.68 25.32 57.60 25.36L57.60 25.36Q57.40 27.52 56.94 30.16Q56.48 32.80 56.04 34.64L56.04 34.64L54.92 39.56L53.84 44.04L53.12 44.76Q55.36 44.36 57.54 43.40Q59.72 42.44 61.88 40.86Q64.04 39.28 65.52 38.04Q67 36.80 69.16 34.72L69.16 34.72L70.12 33.52Q70.80 32.68 71.28 32L71.28 32Q71.76 31.36 72.12 30.72L72.12 30.72Q73.60 28.12 73.80 25.84L73.80 25.84Q74 23.52 73.12 21.82Q72.24 20.12 70.40 18.88ZM43.60 23.60L43.60 23.60Q43.08 24.20 42.68 24.72L42.68 24.72Q41.12 26.88 41.04 28.50Q40.96 30.12 42.36 30.60Q43.76 31.08 46.60 30.08L46.60 30.08Q50.64 28.56 56.56 25.40L56.56 25.40Q56.60 24.60 56.60 23.04Q56.60 21.48 56.64 20.72L56.64 20.72L57.76 19.60L58.08 20.68L57.72 21.04Q57.68 24.04 57.64 24.80L57.64 24.80Q58.36 24.44 59.96 23.52L59.96 23.52L62.52 22.16L64.84 20.96L67.40 19.64Q68.60 19.04 69.76 18.52L69.76 18.52Q67.24 17.08 63.64 16.72L63.64 16.72Q58.40 16.20 53.76 17.80Q49.12 19.40 44.36 22.84L44.36 22.84L45.48 21.72Q50.28 18.28 54.92 16.68L54.92 16.68Q59.52 15.08 64.76 15.60L64.76 15.60Q68.88 16 71.52 17.76L71.52 17.76L71.64 17.72Q73.08 17.12 74.72 16.52Q76.36 15.92 78.40 15.24Q80.44 14.56 81.52 14.16L81.52 14.16L80.40 15.28L76.60 16.60Q73.68 17.60 72.12 18.20L72.12 18.20Q73.72 19.44 74.44 21.10Q75.16 22.76 74.90 24.96Q74.64 27.16 73.24 29.60L73.24 29.60Q72.88 30.28 72.36 30.96L72.36 30.96L71.16 32.52Q70.48 33.36 70.12 33.84L70.12 33.84L69 34.96L67.20 36.64L65.48 38.20Q64.12 39.44 63.56 39.84L63.56 39.84L61.72 41.32Q60.40 42.36 59.64 42.80L59.64 42.80L57.56 43.92Q56.32 44.64 55.32 44.98Q54.32 45.32 53.08 45.64Q51.84 45.96 50.64 46.08L50.64 46.08Q46.56 46.48 44.88 44.16Q43.20 41.84 44.76 38.08L44.76 38.08Q45.00 37.48 45.26 37Q45.52 36.52 45.88 36.08L45.88 36.08L46.52 35.32Q46.72 35.04 47.28 34.46Q47.84 33.88 48.08 33.60L48.08 33.60L49.20 32.48Q54.96 28.52 55.72 32.04L55.72 32.04Q56.32 28.72 56.52 25.96L56.52 25.96Q49.72 29.60 45.48 31.20L45.48 31.20Q42.60 32.20 41.22 31.74Q39.84 31.28 39.92 29.64Q40.00 28 41.56 25.84L41.56 25.84Q42.08 25.12 43.60 23.60Z" fill="black"></path></svg>